<svg xmlns="http://www.w3.org/2000/svg" width="512" height="512" viewBox="0 0 512 512">
  <g fill="none" fill-rule="evenodd">
    <circle cx="256" cy="256" r="256" fill="#03CB24"/>
    <g fill="#FFFFFF" fill-rule="nonzero" transform="translate(90 117)">
      <path d="M149.749017 3.5150386L25.1554303 54.8863631C18.2267432 57.7435672 18.2985235 67.5499132 25.2706566 70.3035953L150.385595 119.741884C161.379313 124.086039 173.621631 124.086039 184.613461 119.741884L309.730288 70.3035953C316.700532 67.5499132 316.774201 57.7435672 309.843625 54.8863631L185.251927 3.5150386C173.884196-1.17167953 161.11486-1.17167953 149.749017 3.5150386M178 147.222874L178 270.677533C178 276.549607 183.940322 280.570312 189.416292 278.40662L328.733556 224.506213C331.914186 223.24939 334 220.186354 334 216.777126L334 93.3224667C334 87.450393 328.059678 83.4296875 322.583708 85.5933802L183.266444 139.493787C180.087701 140.75061 178 143.813646 178 147.222874M145.355474 153.321302L104.026957 173.293396 99.8307085 175.323464 12.5887448 217.161754C7.05852732 219.832002 0 215.798303 0 209.649557L0 93.3483658C0 91.1237887 1.13962858 89.2032497 2.66793842 87.7567081 3.30567759 87.1165285 4.02832286 86.589655 4.77927017 86.1723107 6.86418669 84.9202779 9.83778708 84.5860248 12.3661021 85.5868957L144.661131 138.049523C151.385694 140.719771 151.913999 150.150618 145.355474 153.321302"/>
    </g>
  </g>
</svg>
